#tb 0: 100/2997
#media_type 0: video
#codec_id 0: rawvideo
#dimensions 0: 720x480
#sar 0: 0/1
0,          0,          0,        1,  1382400, 0xfe6e6fd3
0,          1,          1,        1,  1382400, 0x3c7809c8
0,          2,          2,        1,  1382400, 0x06901a04
0,          3,          3,        1,  1382400, 0xd7d7c910
0,          4,          4,        1,  1382400, 0x017e8fda
0,          5,          5,        1,  1382400, 0xab9ee842
0,          6,          6,        1,  1382400, 0x08615b93
0,          7,          7,        1,  1382400, 0x105cb681
0,          8,          8,        1,  1382400, 0xd9dd224f
0,          9,          9,        1,  1382400, 0x058cabbf
0,         10,         10,        1,  1382400, 0x73424fc0
0,         11,         11,        1,  1382400, 0x39d0a78b
0,         12,         12,        1,  1382400, 0x956d1393
0,         13,         13,        1,  1382400, 0xe4aff472
0,         14,         14,        1,  1382400, 0x83ff20ce
0,         15,         15,        1,  1382400, 0xb53383df
0,         16,         16,        1,  1382400, 0x181e55e8
0,         17,         17,        1,  1382400, 0x0716c90c
0,         18,         18,        1,  1382400, 0x092aae25
0,         19,         19,        1,  1382400, 0x0a23b4cb
0,         20,         20,        1,  1382400, 0xe72000b0
0,         21,         21,        1,  1382400, 0x0b8d02e8
0,         22,         22,        1,  1382400, 0xec2a3b0d
0,         23,         23,        1,  1382400, 0x4ddc4e19
0,         24,         24,        1,  1382400, 0xc4656abb
0,         25,         25,        1,  1382400, 0x60d78517
